HIERARCHY
ROOT Hips
{
  OFFSET 74.0196 97.4445 -31.1285
  CHANNELS 6 Xposition Yposition Zposition Zrotation Xrotation Yrotation
  JOINT RightUpLeg
  {
    OFFSET -8.9458 -8.66707 0.101652
    CHANNELS 3 Zrotation Xrotation Yrotation
    JOINT RightLeg
    {
      OFFSET -2.94875e-013 -44.4227 1.3727
      CHANNELS 3 Zrotation Xrotation Yrotation
      JOINT RightFoot
      {
        OFFSET 0.253549 -42.0924 -1.46059
        CHANNELS 3 Zrotation Xrotation Yrotation
        JOINT RightToes
        {
          OFFSET 0.04 -4.41509 8.4991
          CHANNELS 3 Zrotation Xrotation Yrotation
          End Site
          {
            OFFSET -0.08 -0.137448 9.77979
          }
        }
      }
    }
  }
  JOINT Spine
  {
    OFFSET -5.68434e-014 11.8905 -6.39488e-014
    CHANNELS 3 Zrotation Xrotation Yrotation
    JOINT Spine1
    {
      OFFSET 5.68434e-014 25.6574 0.127663
      CHANNELS 3 Zrotation Xrotation Yrotation
      JOINT HEad
      {
        OFFSET 4.26326e-014 8.73416 0.011341
        CHANNELS 3 Zrotation Xrotation Yrotation
        End Site
        {
          OFFSET -0.29 12.7742 2.51395
        }
      }
      JOINT LeftShoulder1
      {
        OFFSET 8.99 -0.362252 -0.22
        CHANNELS 3 Zrotation Xrotation Yrotation
        JOINT LeftArm
        {
          OFFSET 10.2827 -0.00338 0.322123
          CHANNELS 3 Zrotation Xrotation Yrotation
          JOINT LeftForeArm
          {
            OFFSET 32.7669 0.099144 -1.42434
            CHANNELS 3 Zrotation Xrotation Yrotation
            JOINT LeftHand
            {
              OFFSET 27.5643 0.085362 1.02216
              CHANNELS 3 Zrotation Xrotation Yrotation
              End Site
              {
                OFFSET 16.7443 -0.6 1.50291
              }
            }
          }
        }
      }
      JOINT RightShoulder
      {
        OFFSET -8.99 -0.362252 -0.22
        CHANNELS 3 Zrotation Xrotation Yrotation
        JOINT RightArm
        {
          OFFSET -10.2827 -0.00338 0.322123
          CHANNELS 3 Zrotation Xrotation Yrotation
          JOINT RightForeArm
          {
            OFFSET -32.8971 0.099144 -1.42434
            CHANNELS 3 Zrotation Xrotation Yrotation
            JOINT RightHand
            {
              OFFSET -27.4921 0.085362 1.02216
              CHANNELS 3 Zrotation Xrotation Yrotation
              End Site
              {
                OFFSET -16.6312 -0.6 1.50291
              }
            }
          }
        }
      }
    }
  }
  JOINT LeftUpLeg
  {
    OFFSET 8.9458 -8.66707 0.101652
    CHANNELS 3 Zrotation Xrotation Yrotation
    JOINT LeftLeg
    {
      OFFSET 7.10543e-014 -44.4227 1.3727
      CHANNELS 3 Zrotation Xrotation Yrotation
      JOINT LeftFoot
      {
        OFFSET -0.253549 -42.0924 -1.46059
        CHANNELS 3 Zrotation Xrotation Yrotation
        JOINT LeftToes
        {
          OFFSET -0.04 -4.41509 8.4991
          CHANNELS 3 Zrotation Xrotation Yrotation
          End Site
          {
            OFFSET 0.08 -0.047448 9.77979
          }
        }
      }
    }
  }
}
MOTION
Frames:	16
Frame Time:	0.0166667
3.18349 69.324 50.8241 -2.48871 4.25915 162.536 -14.7755 12.8545 -1.49288 21.095 72.5713 -32.5249 -3.4647 -3.15687 -0.00533917 -55.7037 -44.982 -49.0166 -9.73725 9.35462 5.81734 -15.9365 15.3074 15.7694 2.53084 -5.7809 -25.2834 -5.03302e-021 -3.88251e-019 1.21329e-020 -63.3557 -14.7122 -21.0945 15.0423 17.5708 -121.252 29.0149 5.18959 -14.3561 14.3693 3.92509 20.1493 86.2725 -73.4095 51.0804 -8.48566 65.8293 131.812 -35.4266 19.0895 -33.9908 -0.0196192 -61.2458 -8.60823 22.502 52.7056 -47.6794 -28.6266 20.711 7.05103 26.7039 -51.0182 -20.0622 
2.74165 69.7629 51.7505 -1.60973 5.01921 158.782 -15.4723 12.9231 -0.253844 19.0445 71.5404 -33.1425 -3.81464 -6.76033 -0.135626 -52.0301 -43.2408 -47.5288 -9.32715 8.93887 5.20249 -15.2692 14.9594 14.075 2.17985 -7.00109 -23.6764 -5.03302e-021 -3.88251e-019 1.21329e-020 -62.796 -18.9518 -22.9302 13.4836 20.9067 -120.497 29.1039 4.86641 -15.5413 16.8116 4.5302 20.7339 76.9854 -68.6268 38.5105 -13.4856 60.4651 142.007 -32.838 19.1291 -36.5375 4.88993 -59.07 -5.85873 20.6804 52.0641 -43.7267 -27.6719 21.3945 6.96657 28.1805 -51.1089 -17.6372 
2.26768 70.4671 52.8304 -0.681525 5.57692 155.003 -16.1887 12.7072 0.82346 17.6291 70.2041 -34.27 -3.97627 -10.3826 -0.28555 -47.2261 -41.5714 -44.0696 -8.76563 8.5176 4.53039 -14.4092 14.6113 12.2956 1.83922 -7.64834 -21.5861 -5.03302e-021 -3.88251e-019 1.21329e-020 -62.0512 -23.4279 -24.0785 12.1002 23.5565 -119.989 29.1118 4.58723 -16.6065 18.5598 4.98917 21.1842 72.0139 -63.2215 31.5533 -15.5078 55.1446 147.886 -30.0426 18.9623 -38.9675 9.61136 -56.4317 -3.17699 18.4474 50.6162 -39.7436 -26.8852 22.1717 6.93879 29.0011 -50.3497 -15.4565 
1.78148 71.4772 54.0582 0.248391 5.87558 151.306 -16.8543 12.1968 1.74727 16.6392 68.4862 -35.251 -4.04181 -13.5154 -0.420954 -42.5735 -40.1999 -39.6189 -8.08776 8.09431 3.85447 -13.3909 14.2307 10.5477 1.42646 -7.65505 -19.1716 -5.03302e-021 -3.88251e-019 1.21329e-020 -61.1324 -27.8385 -24.6324 10.8911 25.6047 -119.711 29.0861 4.3351 -17.59 19.651 5.29371 21.5064 69.6069 -57.5496 28.39 -16.2631 50.0545 151.251 -27.0665 18.6276 -41.4206 13.9103 -53.3427 -0.823319 15.9565 48.2242 -35.8814 -26.123 22.9716 6.91268 28.9414 -48.458 -13.4968 
1.31225 72.813 55.4094 1.12271 5.86773 147.818 -17.3778 11.4337 2.50604 15.8828 66.3209 -35.4672 -4.09259 -15.8205 -0.523981 -38.9585 -39.2765 -35.288 -7.33252 7.6616 3.23738 -12.2624 13.7763 8.95123 0.918167 -7.03353 -16.6911 -5.03302e-021 -3.88251e-019 1.21329e-020 -60.0862 -31.8945 -24.7809 9.73596 27.2713 -119.508 29.0095 4.07797 -18.6324 20.1864 5.45029 21.6833 68.6149 -51.8395 27.664 -16.5964 45.2 153.078 -23.9475 18.135 -43.9437 17.6283 -49.8749 0.984655 13.3832 44.8085 -32.267 -25.2467 23.731 6.83486 27.7979 -45.1526 -11.7055 
0.892524 74.4652 56.8378 1.88967 5.52044 144.666 -17.6831 10.4948 3.07158 15.2565 63.6996 -34.4945 -4.09591 -17.1493 -0.582508 -36.7224 -38.9198 -31.8082 -6.52372 7.20063 2.72678 -11.0643 13.2048 7.5853 0.352174 -5.85308 -14.3868 -5.03302e-021 -3.88251e-019 1.21329e-020 -59.0107 -35.2967 -24.7331 8.57675 28.6844 -119.251 28.8695 3.80522 -19.7905 20.3183 5.48326 21.7015 68.2507 -46.4296 28.2963 -16.8843 40.7276 153.958 -20.8325 17.4925 -46.3804 20.7153 -46.151 2.11184 10.8996 40.3826 -28.9958 -24.1548 24.3802 6.66008 25.4598 -40.2285 -9.95771 
0.550931 76.3893 58.2819 2.51288 4.82275 141.945 -17.7423 9.45426 3.41365 14.7804 60.7062 -32.1887 -3.87921 -17.5395 -0.580526 -35.7231 -39.1218 -29.3374 -5.6652 6.68761 2.34379 -9.81454 12.4805 6.46896 -0.198778 -4.2266 -12.4125 -5.03302e-021 -3.88251e-019 1.21329e-020 -58.0424 -37.7699 -24.6505 7.51725 29.7964 -118.951 28.7114 3.53991 -20.943 20.2132 5.42991 21.5705 67.9834 -41.6978 29.4151 -17.2252 36.892 154.281 -17.9737 16.7579 -48.4539 23.2107 -42.3223 2.51832 8.66797 35.0865 -26.1431 -22.8168 24.8095 6.35773 21.9695 -33.6896 -8.05042 
0.305761 78.5087 59.6815 2.97308 3.79832 139.699 -17.5901 8.34558 3.5189 14.5589 57.5263 -28.6802 -3.20103 -17.1781 -0.507639 -35.5016 -39.7019 -27.5829 -4.75978 6.10808 2.0847 -8.51624 11.5882 5.57434 -0.663543 -2.30666 -10.82 -5.03302e-021 -3.88251e-019 1.21329e-020 -57.3179 -39.1382 -24.6076 6.79984 30.4472 -118.79 28.6459 3.32524 -21.8224 20.015 5.33032 21.3246 67.5097 -37.8671 30.3771 -17.5659 33.8685 154.304 -15.6207 16.0414 -49.9475 25.1977 -38.5494 2.26167 6.83008 29.2188 -23.7629 -21.2878 24.8452 5.91792 17.5579 -25.9215 -5.7686 
0.159612 80.7305 60.9984 3.26367 2.5189 137.909 -17.3147 7.14589 3.40015 14.6893 54.4178 -24.3158 -1.88651 -16.2951 -0.374779 -35.486 -40.3761 -26.0702 -3.84105 5.47312 1.92809 -7.18162 10.5504 4.85601 -1.00067 -0.281561 -9.58287 -5.03302e-021 -3.88251e-019 1.21329e-020 -56.9276 -39.3933 -24.5915 6.67224 30.492 -119.012 28.7974 3.20242 -22.1458 19.8272 5.2188 21.0125 66.7088 -34.9183 30.7949 -17.8112 31.6477 154.189 -13.9096 15.4512 -50.8207 26.7542 -35.0023 1.49196 5.47349 23.2686 -21.852 -19.6936 24.2742 5.35751 12.6482 -17.7754 -3.03419 
0.096339 82.967 62.2307 3.38722 1.10727 136.502 -17.028 5.79178 3.08887 15.179 51.6512 -19.5723 0.05187 -15.0026 -0.217413 -35.2106 -40.8738 -24.4303 -2.98993 4.8279 1.84087 -5.85331 9.4381 4.27465 -1.21025 1.63964 -8.62919 -5.03302e-021 -3.88251e-019 1.21329e-020 -56.8869 -38.7058 -24.5357 7.21907 29.8908 -119.767 29.2175 3.19926 -21.7653 19.7122 5.11977 20.6834 65.5985 -32.641 30.5498 -17.8979 30.0596 154.025 -12.8222 15.0413 -51.2105 27.9211 -31.8937 0.430182 4.58925 17.952 -20.3144 -18.1836 22.9035 4.71512 7.80799 -10.3412 -0.0473633 
0.0834594 85.1488 63.4094 3.35855 -0.280087 135.372 -16.8218 4.21774 2.61737 15.9103 49.4527 -14.9173 2.40038 -13.2103 -0.0905422 -34.459 -41.0125 -22.5651 -2.31407 4.24362 1.78397 -4.60423 8.36685 3.80472 -1.32583 3.25302 -7.87014 -5.03302e-021 -3.88251e-019 1.21329e-020 -57.1386 -37.3733 -24.3737 8.2852 28.7253 -121.022 29.8342 3.32392 -20.7518 19.6982 5.04695 20.3751 64.3065 -30.7502 29.7631 -17.8217 28.8635 153.849 -12.2219 14.8028 -51.3511 28.6896 -29.5117 -0.675817 4.05135 14.1989 -18.9884 -16.8644 20.6159 4.03063 3.63378 -4.48348 2.73907 
0.0799222 87.1833 64.6058 3.17255 -1.46225 134.377 -16.7826 2.29613 2.02284 16.7061 48.1406 -10.6925 4.85843 -10.8192 -0.0569782 -33.2406 -40.7177 -20.5729 -2.00757 3.81617 1.75601 -3.52766 7.48128 3.43091 -1.39093 4.39321 -7.22394 -5.03302e-021 -3.88251e-019 1.21329e-020 -57.5822 -35.734 -24.0853 9.55354 27.1708 -122.59 30.4915 3.55284 -19.3684 19.7868 5.00416 20.1071 63.032 -29.0254 28.7095 -17.6282 27.8637 153.673 -11.9323 14.692 -51.4615 29.003 -28.2054 -1.61723 3.64429 13.0126 -17.7031 -15.7798 17.4096 3.33474 0.59655 -0.565447 4.83172 
0.0537833 89.0671 65.8155 2.93639 -2.33709 133.456 -16.8294 0.183261 1.31188 17.2029 47.6156 -6.93364 7.20913 -7.70818 -0.168991 -31.6917 -40.0471 -18.5367 -1.98339 3.57421 1.69657 -2.67192 6.89415 3.13787 -1.43285 4.96673 -6.63558 -5.03302e-021 -3.88251e-019 1.21329e-020 -58.1123 -34.0896 -23.7117 10.7038 25.4578 -124.244 31.0431 3.82792 -17.9547 19.9588 4.98711 19.8805 61.9779 -27.4195 27.6914 -17.3873 27.0053 153.515 -11.8149 14.6631 -51.6514 28.8579 -27.9574 -2.23588 3.12618 14.6341 -16.4085 -14.9101 13.6475 2.67542 -1.08699 1.48234 5.92543 
-0.0161912 90.7631 67.0282 2.75034 -2.85132 132.551 -16.8731 -1.96877 0.53408 17.0715 47.7833 -3.59599 9.39014 -4.12913 -0.439804 -30.0719 -39.2354 -16.4783 -2.15194 3.53244 1.60287 -2.05046 6.68102 2.91034 -1.452 4.97713 -6.08571 -5.03302e-021 -3.88251e-019 1.21329e-020 -58.6498 -32.6597 -23.3371 11.5328 23.8326 -125.794 31.4206 4.07797 -16.7956 20.1793 4.98585 19.6835 61.2763 -26.0614 26.9282 -17.1628 26.3838 153.397 -11.8044 14.6862 -51.8974 28.3322 -28.4391 -2.44332 2.32407 18.5432 -15.0206 -14.2474 9.9227 2.11185 -1.50386 1.97725 5.9971 
-0.135495 92.2253 68.2158 2.71148 -3.02028 131.64 -16.8246 -3.97789 -0.218701 16.0935 48.4355 -0.697774 11.3537 -0.61784 -0.82646 -28.7148 -38.6008 -14.5077 -2.38414 3.67393 1.49452 -1.62912 6.85463 2.73104 -1.43378 4.53162 -5.58456 -5.03302e-021 -3.88251e-019 1.21329e-020 -59.159 -31.5662 -23.0524 11.9813 22.5163 -127.11 31.6348 4.24954 -16.0447 20.4053 4.98806 19.5 60.9532 -25.1296 26.5134 -16.9895 26.1394 153.328 -11.8878 14.7448 -52.0974 27.5645 -29.2101 -2.20377 1.19996 23.8732 -13.4584 -13.7728 6.73219 1.6759 -0.976139 1.34409 5.24805 
-0.295652 93.414 69.3469 2.88354 -2.92028 130.738 -16.6309 -5.67004 -0.825954 14.2728 49.2454 1.5913 12.8896 2.2231 -1.22241 -27.7462 -38.227 -12.8338 -2.55196 3.95526 1.3929 -1.33821 7.36005 2.58209 -1.37173 3.8212 -5.15681 -5.03302e-021 -3.88251e-019 1.21329e-020 -59.6488 -30.8342 -22.9257 12.0965 21.6647 -128.099 31.7352 4.32128 -15.7262 20.5969 4.9827 19.316 60.9448 -24.7064 26.4337 -16.868 26.322 153.277 -12.0608 14.8257 -52.1495 26.6673 -29.9528 -1.52097 -0.0957812 29.8832 -11.7952 -13.4749 4.25354 1.3629 0.0920131 0.0177481 3.97966 
